# xmcd CD database file
#
# Track frame offsets:
#	150
#	16137
#	34725
#	44629
#	57337
#	70383
#	84570
#	99746
#	113880
#	127257
#	138705
#	151025
#	165558
#	179360
#	190988
#
# Disc length: 2728 seconds
#
# Revision: 0
# Processed by: cddbd v1.5PL3 Copyright (c) Steve Scherf et al.
# Submitted via: CDex 1.51
#
DISCID=d50aa60f
DTITLE=PONKICKIES - PONKICKIES BEST 30 [CD1]
DYEAR=2004
DGENRE=Vocal
TTITLE0=たべちゃうぞ
TTITLE1=およげ！たいやきくん
TTITLE2=いっぽんでもニンジン
TTITLE3=ホネホネ・ロック
TTITLE4=パタパタママ
TTITLE5=まる・さんかく・しかく
TTITLE6=カンフーレディー
TTITLE7=あいうえ おほしさま
TTITLE8=おっぱいがいっぱい
TTITLE9=ドキドキドン！一年生
TTITLE10=十二支のうた
TTITLE11=からだ元気？
TTITLE12=はたらく くるま２
TTITLE13=たなあげあんど
TTITLE14=みんなともだち
EXTD=YEAR: 2004
EXTT0=
EXTT1=
EXTT2=
EXTT3=
EXTT4=
EXTT5=
EXTT6=
EXTT7=
EXTT8=
EXTT9=
EXTT10=
EXTT11=
EXTT12=
EXTT13=
EXTT14=
PLAYORDER=
